<?xml version="1.0" encoding="UTF-8" standalone="no"?>
<svg
   viewBox="320 340 1211.2593 1248.3057"
   width="1211.2593"
   height="1248.3057"
   version="1.1"
   id="svg1"
   sodipodi:docname="dos_logo_vectorized.svg"
   inkscape:version="1.4.2 (ebf0e940, 2025-05-08)"
   xmlns:inkscape="http://www.inkscape.org/namespaces/inkscape"
   xmlns:sodipodi="http://sodipodi.sourceforge.net/DTD/sodipodi-0.dtd"
   xmlns="http://www.w3.org/2000/svg"
   xmlns:svg="http://www.w3.org/2000/svg">
  <defs
     id="defs1" />
  <sodipodi:namedview
     id="namedview1"
     pagecolor="#ffffff"
     bordercolor="#999999"
     borderopacity="1"
     inkscape:showpageshadow="0"
     inkscape:pageopacity="0"
     inkscape:pagecheckerboard="0"
     inkscape:deskcolor="#d1d1d1"
     inkscape:zoom="0.28608708"
     inkscape:cx="-124.08809"
     inkscape:cy="155.54704"
     inkscape:window-width="2224"
     inkscape:window-height="1206"
     inkscape:window-x="0"
     inkscape:window-y="30"
     inkscape:window-maximized="0"
     inkscape:current-layer="svg1" />
  <path
     d="m 984.08769,1587.1117 c -70.40474,-14.5071 -114.32653,-60.0947 -185.39325,-105.5447 -45.85873,-29.3285 15.0935,-108.5199 36.62525,-163.067 -17.87456,-28.8231 -22.128,-57.3874 -30,-90 l -37.5,-18.5 c -114.07666,32.5933 -138.87466,122.99 -148.5,163.5 -5.64406,23.7541 -74.84941,6.11 -71,-18 12.24118,-76.6702 48.20812,-146.5716 156,-194 -87.04156,-102.0591 -48.1556,-230.87291 -66.5,-349.5 -77.28732,-13.50342 -125.84593,-40.00698 -180,-70 l 1.5,53.5 c 27.06589,12.20023 30.84528,34.88845 23,59 23.28933,43.22732 45.3561,88.64899 81,122 10.88651,10.1862 8.40022,30.0357 -19.98758,24.633 -8.35756,-1.5906 -27.06916,-16.5568 -27.06916,-16.5568 0,0 19.97457,19.6202 16.49025,30.7022 -2.99309,9.5196 -14.80823,15.7966 -26.70921,13.5221 C 481.45152,1024.1006 469.81969,963 469.81969,963 c 0,0 8.48035,42.2516 4.33244,57.9778 -4.34486,16.473 -28.67255,28.682 -48.6773,-0.8005 -16.72446,22.2993 -51.5337,13.7204 -47.15514,-2.6773 4.44025,-16.6287 11.32627,-20.4945 20.5,-58.5 -13.82793,23.463 -22.93146,58.2624 -48.64539,60.133 -13.05454,0.9496 -35.90061,-15.6023 -28.85461,-26.633 31.37502,-49.11851 -2.39104,12.5007 84,-133 -14.08005,-26.2138 -5.65876,-45.75593 16,-62 l -2,-65 c -26.3303,-22.04685 -70,-39.13684 -70,-77 19.8059,-50.42036 101.32925,-30.00043 525.5,-315.5 144.27821,47.49404 643.39041,255.59513 656.08301,324.4763 10.0048,54.29477 -193.3989,120.89949 -250.7365,162.0304 -26.4822,150.8156 4.913,163.0478 -46.8465,337.9933 90.1571,30.0524 149.9057,107.7629 166,188 4.7725,23.7931 -60.3201,42.2529 -70,20 -27.8133,-63.9396 -48.6747,-128.0354 -160.5,-156.5 l -49,20 c -4.2899,37.0154 -12.8501,54.9527 -29.5,86.5 21.9079,51.1167 104.8084,109.3697 57.6699,141.1563 -59.1697,39.8995 -100.8182,136.4539 -163.90191,123.4554 z M 1286.3197,758.5 c 59.5135,-27.89914 104.6128,-63.20356 161.7915,-95.48815 C 1244.5385,569.93583 1053.1849,469.38517 879.81969,412 c -137.85066,101.30319 -290.12334,172.8347 -442.5,248.5 45.78198,56.30127 133.28009,85.53741 194.5,89.5 -4.10355,-27.83875 -8.5,-55.38388 -8.5,-83.5 55.72745,-73.32559 445.53041,-88.95807 655.50001,-2.5 20.6173,25.3325 8.6576,63.63065 7.5,94.5 z m -65,53 2,-105 c -113.9043,-31.83659 -312.91352,-81.13198 -532.00001,-10 0.95877,34.10144 3.36418,67.83184 8.5,101.5 136.27927,-68.13964 335.26201,-72.61005 521.50001,13.5 z m -107.5,358.5 c 77.5765,-35.063 106.1431,-73.5147 91.5,-289.5 -198.0903,-126.49138 -439.67321,-69.87429 -493.00001,-4 -17.42253,141.066 16.51133,267.9407 157.5,303.5 101.5637,25.6158 147.73331,33.5105 244.00001,-10 z M 817.31969,1029.5 c -33.46383,-35.1537 -38.09135,-109.53592 -5.5,-145.5 14.80026,-16.33187 47.97028,-16.67703 66,-4 32.5304,22.87273 36.5715,74.8521 33.5,114.5 -1.18053,15.2387 -6.2531,33.8756 -19.5,41.5 -21.60475,12.4348 -57.31278,11.5552 -74.5,-6.5 z m 208.00001,-7 c -16.6789,-33.1369 -23.0075,-77.60188 -8,-117 9.4881,-24.9085 42.6775,-37.33937 66.5,-31.5 23.3425,5.72171 37.0324,34.35305 43.5,57.5 8.7473,31.3056 10.3697,71.6696 -10,97 -25.2566,31.4073 -73.5596,30.6366 -92,-6 z M 986.81969,1162 c -14.6605,5.5642 -32.7498,4.5438 -47,-2 -25.93206,-11.9082 -59.38479,-33.9782 -58.5,-62.5 0.50449,-16.2625 9.17598,-27.9581 35.5,-33.5 33.47546,-3.3006 64.1762,-2.9015 93.00001,0 29.154,5.7362 36.3658,23.3165 35.5,41.5 -1.2893,27.0792 -33.1542,46.8804 -58.50001,56.5 z m 64.50001,86.5 c -104.36878,10.9391 -127.09035,2.9125 -176.00001,-4 79.3185,150.7125 173.14911,39.5263 176.00001,4 z m -64.79901,279.9553 c 43.23021,-21.956 76.35871,-53.9694 107.79901,-89.9553 l -51,-84 -38.0913,16.2738 c 8.8212,29.1287 17.7523,41.0978 32.5943,70.7202 10.6287,21.2132 -27.6731,42.4425 -46.21341,56.8627 -20.3009,-15.0817 -71.09805,-31.2474 -67.0792,-51.0731 l 14.69835,-72.5098 -53.40875,-16.7738 -32.5,93.5 c 70.60904,50.3074 89.97363,54.6859 133.201,76.9553 z"
     fill="#000000"
     fill-rule="evenodd"
     id="path1"
     sodipodi:nodetypes="sscccsscccccsscascscscascccccsccsscccsscccccccccccccsccssaaaaaassaassaaaccaacccccccscscccc" />
</svg>
